<?xml version="1.0" standalone="no"?>
<!DOCTYPE svg PUBLIC "-//W3C//DTD SVG 20010904//EN"
 "http://www.w3.org/TR/2001/REC-SVG-20010904/DTD/svg10.dtd">
<svg version="1.0" xmlns="http://www.w3.org/2000/svg"
 width="202.000000pt" height="228.000000pt" viewBox="0 0 202.000000 228.000000"
 preserveAspectRatio="xMidYMid meet">

<g transform="translate(0.000000,228.000000) scale(0.100000,-0.100000)"
fill="#000000" stroke="none">
<path d="M1012 1480 c0 -14 2 -19 5 -12 2 6 2 18 0 25 -3 6 -5 1 -5 -13z"/>
<path d="M906 1456 c3 -9 11 -16 16 -16 13 0 5 23 -10 28 -7 2 -10 -2 -6 -12z"/>
<path d="M1101 1456 c-7 -8 -8 -17 -3 -20 6 -3 13 1 16 10 9 23 2 28 -13 10z"/>
<path d="M942 1420 c-77 -47 -93 -133 -40 -216 18 -27 32 -64 33 -84 4 -69 43
-140 76 -140 31 0 71 71 75 133 1 22 15 58 33 86 55 85 35 188 -43 225 -46 22
-94 20 -134 -4z m111 -4 c47 -20 78 -58 84 -105 4 -32 0 -49 -23 -88 -16 -26
-34 -61 -40 -77 -11 -32 -34 -47 -34 -23 0 7 7 36 15 63 18 58 17 54 6 54 -5
0 -12 -11 -15 -25 -5 -20 -13 -25 -36 -25 -23 0 -30 5 -30 19 0 11 -4 23 -10
26 -14 8 -13 -3 5 -61 8 -27 15 -50 15 -51 0 -2 -9 -3 -20 -3 -13 0 -20 7 -20
18 0 10 -14 40 -32 68 -56 85 -39 165 43 206 41 22 50 22 92 4z m-23 -255 c0
-17 -12 -41 -20 -41 -4 0 -10 11 -12 25 -4 19 -1 25 13 25 11 0 19 -4 19 -9z
m43 -76 c-4 -15 -115 -13 -121 3 -3 10 11 12 59 10 36 -2 63 -7 62 -13z m-18
-40 c0 -5 -19 -11 -42 -13 -34 -3 -43 0 -43 13 0 13 9 16 43 13 23 -2 42 -7
42 -13z m-25 -33 c0 -14 -11 -21 -26 -15 -8 3 -11 9 -8 14 7 11 34 12 34 1z"/>
<path d="M1007 1315 c-30 -61 -32 -69 -17 -60 10 6 60 98 60 110 0 20 -20 -3
-43 -50z"/>
<path d="M941 1327 c-8 -11 -7 -18 7 -31 18 -15 19 -15 19 14 0 33 -8 38 -26
17z"/>
<path d="M1063 1310 c0 -29 1 -29 19 -14 14 13 15 20 7 31 -18 21 -26 16 -26
-17z"/>
<path d="M830 1391 c0 -5 7 -11 15 -15 8 -3 15 -1 15 3 0 5 -7 11 -15 15 -8 3
-15 1 -15 -3z"/>
<path d="M1170 1385 c-8 -9 -8 -15 -2 -15 12 0 26 19 19 26 -2 2 -10 -2 -17
-11z"/>
<path d="M800 1290 c0 -5 9 -10 20 -10 11 0 20 5 20 10 0 6 -9 10 -20 10 -11
0 -20 -4 -20 -10z"/>
<path d="M1188 1283 c6 -2 18 -2 25 0 6 3 1 5 -13 5 -14 0 -19 -2 -12 -5z"/>
<path d="M840 1200 c-8 -5 -12 -11 -9 -14 2 -3 11 -1 19 4 8 5 12 11 9 14 -2
3 -11 1 -19 -4z"/>
<path d="M1165 1190 c3 -5 11 -10 16 -10 6 0 7 5 4 10 -3 6 -11 10 -16 10 -6
0 -7 -4 -4 -10z"/>
<path d="M370 811 c0 -23 5 -41 10 -41 6 0 10 5 10 10 0 6 12 10 26 10 22 0
25 4 22 28 -2 22 -8 28 -35 30 -32 3 -33 2 -33 -37z m50 9 c0 -5 -7 -10 -15
-10 -8 0 -15 5 -15 10 0 6 7 10 15 10 8 0 15 -4 15 -10z"/>
<path d="M460 810 c0 -38 13 -54 23 -27 4 10 7 10 18 0 21 -20 26 -16 27 27 2
39 1 40 -33 40 -34 0 -35 -1 -35 -40z m50 10 c0 -5 -7 -10 -15 -10 -8 0 -15 5
-15 10 0 6 7 10 15 10 8 0 15 -4 15 -10z"/>
<path d="M560 810 c0 -41 1 -41 33 -38 29 3 32 6 32 38 0 32 -3 35 -32 38 -32
3 -33 3 -33 -38z m48 -2 c-2 -13 -10 -23 -18 -23 -8 0 -16 10 -18 23 -3 17 2
22 18 22 16 0 21 -5 18 -22z"/>
<path d="M660 816 c0 -19 -6 -37 -12 -39 -7 -3 -3 -6 10 -6 19 -1 22 4 22 39
0 22 -4 40 -10 40 -5 0 -10 -15 -10 -34z"/>
<path d="M710 810 c0 -39 1 -40 33 -39 23 1 26 3 10 6 -13 2 -23 9 -23 14 0 5
10 10 23 10 20 1 20 2 2 6 -34 8 -41 23 -12 23 15 0 27 5 27 10 0 6 -13 10
-30 10 -28 0 -30 -2 -30 -40z"/>
<path d="M794 836 c-3 -8 -4 -25 -2 -38 2 -18 10 -24 36 -26 18 -2 32 1 32 7
0 6 -10 10 -22 8 -17 -1 -24 4 -26 22 -3 21 -1 23 23 19 16 -4 24 -1 22 6 -6
18 -56 20 -63 2z"/>
<path d="M880 840 c0 -5 5 -10 10 -10 6 0 10 -13 10 -30 0 -16 5 -30 10 -30 6
0 10 14 10 30 0 20 5 30 15 30 8 0 15 5 15 10 0 6 -16 10 -35 10 -19 0 -35 -4
-35 -10z"/>
<path d="M1010 810 c0 -22 5 -40 10 -40 6 0 10 7 10 16 0 13 3 14 14 5 11 -9
16 -9 22 0 5 9 10 7 15 -7 5 -13 8 -7 8 24 1 44 -13 57 -24 21 l-7 -21 -15 21
c-22 32 -33 25 -33 -19z"/>
<path d="M1120 811 c0 -39 13 -55 23 -28 4 10 7 10 18 0 22 -22 30 -14 27 25
-3 34 -6 37 -35 40 -32 3 -33 2 -33 -37z m50 9 c0 -5 -7 -10 -15 -10 -8 0 -15
5 -15 10 0 6 7 10 15 10 8 0 15 -4 15 -10z"/>
<path d="M1210 810 c0 -38 20 -60 20 -22 1 16 1 16 14 0 22 -30 36 -21 36 22
0 22 -4 40 -10 40 -5 0 -10 -10 -10 -22 l-1 -23 -18 23 c-26 31 -31 28 -31
-18z"/>
<path d="M1307 844 c-11 -11 -8 -74 3 -74 6 0 10 5 10 10 0 6 7 10 15 10 8 0
15 -4 15 -10 0 -5 5 -10 11 -10 6 0 9 16 7 38 -3 31 -7 37 -28 40 -14 2 -29 0
-33 -4z m43 -24 c0 -5 -7 -10 -15 -10 -8 0 -15 5 -15 10 0 6 7 10 15 10 8 0
15 -4 15 -10z"/>
<path d="M1397 843 c-4 -3 -7 -21 -7 -40 0 -31 2 -33 35 -33 28 0 35 4 35 20
0 11 -7 20 -15 20 -9 0 -12 -6 -9 -15 4 -9 0 -15 -10 -15 -11 0 -16 9 -16 26
0 23 3 26 25 22 17 -4 25 -1 25 8 0 14 -51 20 -63 7z"/>
<path d="M1490 810 c0 -39 1 -40 33 -39 23 1 26 3 10 6 -13 2 -23 9 -23 14 0
5 10 10 23 10 20 1 20 2 2 6 -34 8 -41 23 -12 23 15 0 27 5 27 10 0 6 -13 10
-30 10 -28 0 -30 -2 -30 -40z"/>
<path d="M1581 808 c0 -24 3 -37 6 -30 6 14 33 16 33 2 0 -5 6 -10 13 -10 8 0
13 13 12 38 0 34 -2 37 -32 40 -33 3 -33 3 -32 -40z m49 12 c0 -5 -6 -10 -14
-10 -8 0 -18 5 -21 10 -3 6 3 10 14 10 12 0 21 -4 21 -10z"/>
<path d="M968 803 c6 -2 18 -2 25 0 6 3 1 5 -13 5 -14 0 -19 -2 -12 -5z"/>
<path d="M50 536 c0 -2 8 -10 18 -17 15 -13 16 -12 3 4 -13 16 -21 21 -21 13z"/>
<path d="M1949 523 c-13 -16 -12 -17 4 -4 16 13 21 21 13 21 -2 0 -10 -8 -17
-17z"/>
</g>
</svg>
